<svg width="68" height="49" viewBox="0 0 68 49" fill="none" xmlns="http://www.w3.org/2000/svg">
<path d="M67.9199 17.5544C68.0723 13.1412 67.1072 8.76109 65.1141 4.82066C63.7618 3.20381 61.8851 2.11269 59.811 1.73743C51.2319 0.958991 42.6174 0.639935 34.0043 0.781628C25.4226 0.633504 16.839 0.942265 8.29011 1.7066C6.59994 2.01405 5.03581 2.80683 3.78859 3.98819C1.01368 6.54728 0.705352 10.9255 0.397028 14.6254C-0.0503116 21.2776 -0.0503116 27.9524 0.397028 34.6047C0.486227 36.6871 0.796288 38.7542 1.322 40.7712C1.69376 42.3284 2.44591 43.7691 3.51109 44.9644C4.7668 46.2083 6.36736 47.0462 8.10511 47.3693C14.7523 48.1898 21.45 48.5298 28.1461 48.3868C38.9375 48.5409 48.403 48.3868 59.5951 47.5235C61.3756 47.2202 63.0212 46.3813 64.3125 45.1185C65.1757 44.255 65.8204 43.198 66.1933 42.0353C67.2959 38.6518 67.8375 35.1107 67.7965 31.5523C67.9199 29.8257 67.9199 19.4044 67.9199 17.5544ZM27.0362 33.4022V14.317L45.2889 23.9059C40.1708 26.7425 33.4185 29.949 27.0362 33.4022Z" fill="url(#paint0_diamond_413_648)"/>
<defs>
<radialGradient id="paint0_diamond_413_648" cx="0" cy="0" r="1" gradientUnits="userSpaceOnUse" gradientTransform="translate(33.9985 24.5925) rotate(90) scale(23.8469 33.937)">
<stop stop-color="#DCC688"/>
<stop offset="1" stop-color="#D5BE7C"/>
</radialGradient>
</defs>
</svg>
