<svg width="28" height="28" viewBox="0 0 28 28" fill="none" xmlns="http://www.w3.org/2000/svg">
<path d="M26.4465 1.20244C26.1332 0.886565 25.7605 0.635849 25.3498 0.464752C24.9391 0.293656 24.4986 0.205566 24.0537 0.205566C23.6088 0.205566 23.1683 0.293656 22.7576 0.464752C22.347 0.635849 21.9742 0.886565 21.6609 1.20244L13.9434 8.95371L6.2258 1.20244C5.59119 0.567836 4.73048 0.211318 3.83302 0.211318C2.93555 0.211318 2.07484 0.567836 1.44023 1.20244C0.805628 1.83705 0.449111 2.69776 0.449111 3.59522C0.449111 4.49269 0.805629 5.3534 1.44023 5.988L9.1915 13.7056L1.44023 21.4231C1.12436 21.7364 0.873642 22.1092 0.702545 22.5198C0.531449 22.9305 0.443359 23.371 0.443359 23.8159C0.443359 24.2608 0.531449 24.7013 0.702545 25.112C0.873642 25.5227 1.12436 25.8954 1.44023 26.2087C1.75353 26.5246 2.12627 26.7753 2.53695 26.9464C2.94763 27.1175 3.38812 27.2056 3.83302 27.2056C4.27791 27.2056 4.7184 27.1175 5.12908 26.9464C5.53976 26.7753 5.9125 26.5246 6.2258 26.2087L13.9434 18.4574L21.6609 26.2087C21.9742 26.5246 22.347 26.7753 22.7576 26.9464C23.1683 27.1175 23.6088 27.2056 24.0537 27.2056C24.4986 27.2056 24.9391 27.1175 25.3498 26.9464C25.7605 26.7753 26.1332 26.5246 26.4465 26.2087C26.7624 25.8954 27.0131 25.5227 27.1842 25.112C27.3553 24.7013 27.4434 24.2608 27.4434 23.8159C27.4434 23.371 27.3553 22.9305 27.1842 22.5198C27.0131 22.1092 26.7624 21.7364 26.4465 21.4231L18.6952 13.7056L26.4465 5.988C26.7624 5.67471 27.0131 5.30197 27.1842 4.89129C27.3553 4.48061 27.4434 4.04012 27.4434 3.59522C27.4434 3.15033 27.3553 2.70983 27.1842 2.29915C27.0131 1.88847 26.7624 1.51574 26.4465 1.20244Z" fill="white" fill-opacity="0.4"/>
</svg>
