<svg width="36" height="25" viewBox="0 0 36 25" fill="none" xmlns="http://www.w3.org/2000/svg">
<path d="M14.6011 24.6121C14.2603 24.6124 13.9227 24.5454 13.6079 24.4149C13.293 24.2845 13.0071 24.0931 12.7664 23.8517L1.75602 12.8413C1.5151 12.6004 1.32398 12.3144 1.19359 11.9996C1.0632 11.6848 0.996094 11.3474 0.996094 11.0067C0.996094 10.666 1.0632 10.3286 1.19359 10.0138C1.32398 9.69901 1.5151 9.41299 1.75602 9.17206C1.99695 8.93113 2.28297 8.74002 2.59776 8.60963C2.91255 8.47924 3.24994 8.41213 3.59066 8.41213C3.93138 8.41213 4.26877 8.47924 4.58356 8.60963C4.89834 8.74002 5.18437 8.93113 5.42529 9.17206L14.6011 18.3478L31.5669 1.382C31.8078 1.14107 32.0938 0.949959 32.4086 0.81957C32.7234 0.689181 33.0608 0.62207 33.4015 0.62207C33.7423 0.62207 34.0796 0.689181 34.3944 0.81957C34.7092 0.949959 34.9952 1.14107 35.2362 1.382C35.4771 1.62293 35.6682 1.90895 35.7986 2.22374C35.929 2.53852 35.9961 2.87591 35.9961 3.21663C35.9961 3.55736 35.929 3.89474 35.7986 4.20953C35.6682 4.52432 35.4771 4.81034 35.2362 5.05127L16.4357 23.8517C16.195 24.0931 15.9091 24.2845 15.5942 24.4149C15.2794 24.5454 14.9419 24.6124 14.6011 24.6121Z" fill="white"/>
</svg>
