<svg width="26" height="26" viewBox="0 0 26 26" fill="none" xmlns="http://www.w3.org/2000/svg">
	<g clip-path="url(#clip0_330_1077)">
		<path d="M25.9805 13.0557C25.9805 6.1521 20.384 0.555664 13.4805 0.555664C6.57691 0.555664 0.980469 6.1521 0.980469 13.0557C0.980469 19.2948 5.55154 24.4661 11.5273 25.4038V16.6689H8.35352V13.0557H11.5273V10.3018C11.5273 7.16894 13.3935 5.43848 16.2488 5.43848C17.6164 5.43848 19.0469 5.68262 19.0469 5.68262V8.75879H17.4706C15.9178 8.75879 15.4336 9.72233 15.4336 10.7109V13.0557H18.9004L18.3462 16.6689H15.4336V25.4038C21.4094 24.4661 25.9805 19.2948 25.9805 13.0557Z" fill="white"/>
		<path d="M18.3462 16.6689L18.9004 13.0557H15.4336V10.7109C15.4336 9.72233 15.9178 8.75879 17.4706 8.75879H19.0469V5.68262C19.0469 5.68262 17.6164 5.43848 16.2488 5.43848C13.3935 5.43848 11.5273 7.16894 11.5273 10.3018V13.0557H8.35352V16.6689H11.5273V25.4038C12.8216 25.6063 14.1394 25.6063 15.4336 25.4038V16.6689H18.3462Z" fill="#0A1013"/>
	</g>
	<defs>
		<clipPath id="clip0_330_1077">
			<rect width="25" height="25" fill="white" transform="translate(0.980469 0.555664)"/>
		</clipPath>
	</defs>
</svg>
