<svg width="17" height="17" viewBox="0 0 17 17" fill="none" xmlns="http://www.w3.org/2000/svg">
<g clip-path="url(#clip0_330_1100)">
<path d="M8.98047 0.15918C5.66047 0.15918 2.98047 2.83918 2.98047 6.15918C2.98047 10.1592 8.98047 16.1592 8.98047 16.1592C8.98047 16.1592 14.9805 10.1592 14.9805 6.15918C14.9805 2.83918 12.3005 0.15918 8.98047 0.15918ZM8.98047 2.15918C10.0413 2.15918 11.0588 2.58061 11.8089 3.33075C12.559 4.0809 12.9805 5.09831 12.9805 6.15918C12.9805 8.37918 11.2005 10.1592 8.98047 10.1592C7.9196 10.1592 6.90219 9.73775 6.15204 8.98761C5.4019 8.23746 4.98047 7.22005 4.98047 6.15918C4.98047 5.09831 5.4019 4.0809 6.15204 3.33075C6.90219 2.58061 7.9196 2.15918 8.98047 2.15918Z" fill="white"/>
</g>
<defs>
<clipPath id="clip0_330_1100">
<rect width="16" height="16" fill="white" transform="translate(0.980469 0.15918)"/>
</clipPath>
</defs>
</svg>
