<svg width="26" height="26" viewBox="0 0 26 26" fill="none" xmlns="http://www.w3.org/2000/svg">
<path d="M17.5381 8.38086H15.5986V10.3788H17.5381V8.38086Z" fill="white"/>
<path d="M16.3477 12.9591C16.3477 14.734 14.9035 16.1782 13.1286 16.1782C11.3535 16.1782 9.90934 14.734 9.90934 12.9591C9.90934 12.4788 10.0181 12.0241 10.2074 11.6143H8.08008V17.1401C8.08008 17.6417 8.4882 18.0498 8.98982 18.0498H17.2675C17.7691 18.0498 18.1772 17.6417 18.1772 17.1401V11.6145H16.0496C16.239 12.0243 16.3477 12.4788 16.3477 12.9591Z" fill="white"/>
<path d="M13.1296 14.8736C14.185 14.8736 15.044 14.0147 15.044 12.9591C15.044 12.4353 14.8323 11.9604 14.4902 11.6143H11.7684C11.4266 11.9602 11.2148 12.4353 11.2148 12.9591C11.2148 14.0147 12.0737 14.8736 13.1296 14.8736Z" fill="white"/>
<path d="M13.1275 0.405273C6.18271 0.405273 0.552734 6.03546 0.552734 12.9803C0.552734 19.9248 6.18271 25.5557 13.1275 25.5557C20.0723 25.5557 25.7027 19.925 25.7027 12.9803C25.7025 6.03546 20.0723 0.405273 13.1275 0.405273ZM19.4806 17.1397C19.4806 18.3606 18.4874 19.3541 17.2663 19.3541H8.98867C7.76779 19.3541 6.77434 18.3608 6.77434 17.1397V8.82403C6.77434 7.60315 7.76757 6.6097 8.98867 6.6097H17.2663C18.4872 6.6097 19.4806 7.60293 19.4806 8.82403V17.1397Z" fill="white"/>
</svg>
