<svg width="1258" height="307" viewBox="0 0 1258 307" fill="none" xmlns="http://www.w3.org/2000/svg">
<path d="M41.0985 232.416C47.6266 232.416 53.2772 233.504 58.0504 235.68C62.8938 237.856 66.6141 240.945 69.2113 244.946C71.8084 248.947 73.107 253.685 73.107 259.16C73.107 264.565 71.8084 269.303 69.2113 273.374C66.6141 277.375 62.8938 280.464 58.0504 282.64C53.2772 284.746 47.6266 285.799 41.0985 285.799H26.2525V306.12H9.19531V232.416H41.0985ZM40.1509 271.9C45.2751 271.9 49.1708 270.812 51.8382 268.636C54.5056 266.39 55.8393 263.231 55.8393 259.16C55.8393 255.019 54.5056 251.86 51.8382 249.684C49.1708 247.438 45.2751 246.314 40.1509 246.314H26.2525V271.9H40.1509Z" fill="#D1C297"/>
<path d="M109.526 306.962C103.56 306.962 98.1899 305.734 93.4167 303.277C88.7137 300.75 85.0285 297.275 82.3611 292.853C79.6937 288.431 78.3601 283.412 78.3601 277.796C78.3601 272.181 79.6937 267.162 82.3611 262.74C85.0285 258.318 88.7137 254.878 93.4167 252.421C98.1899 249.894 103.56 248.631 109.526 248.631C115.493 248.631 120.827 249.894 125.53 252.421C130.233 254.878 133.919 258.318 136.586 262.74C139.253 267.162 140.587 272.181 140.587 277.796C140.587 283.412 139.253 288.431 136.586 292.853C133.919 297.275 130.233 300.75 125.53 303.277C120.827 305.734 115.493 306.962 109.526 306.962ZM109.526 293.485C113.738 293.485 117.177 292.081 119.845 289.273C122.582 286.395 123.951 282.57 123.951 277.796C123.951 273.023 122.582 269.233 119.845 266.425C117.177 263.547 113.738 262.108 109.526 262.108C105.315 262.108 101.84 263.547 99.1024 266.425C96.3648 269.233 94.9961 273.023 94.9961 277.796C94.9961 282.57 96.3648 286.395 99.1024 289.273C101.84 292.081 105.315 293.485 109.526 293.485Z" fill="#D1C297"/>
<path d="M178.839 306.962C172.802 306.962 167.362 305.734 162.519 303.277C157.746 300.75 153.99 297.275 151.253 292.853C148.585 288.431 147.252 283.412 147.252 277.796C147.252 272.181 148.585 267.162 151.253 262.74C153.99 258.318 157.746 254.878 162.519 252.421C167.362 249.894 172.802 248.631 178.839 248.631C184.806 248.631 190 249.894 194.422 252.421C198.915 254.878 202.179 258.423 204.214 263.056L191.474 269.9C188.526 264.705 184.279 262.108 178.734 262.108C174.452 262.108 170.907 263.512 168.099 266.32C165.292 269.128 163.888 272.953 163.888 277.796C163.888 282.64 165.292 286.465 168.099 289.273C170.907 292.081 174.452 293.485 178.734 293.485C184.349 293.485 188.596 290.888 191.474 285.693L204.214 292.643C202.179 297.135 198.915 300.645 194.422 303.172C190 305.699 184.806 306.962 178.839 306.962Z" fill="#D1C297"/>
<path d="M240.43 306.962C234.394 306.962 228.954 305.734 224.11 303.277C219.337 300.75 215.582 297.275 212.844 292.853C210.177 288.431 208.843 283.412 208.843 277.796C208.843 272.181 210.177 267.162 212.844 262.74C215.582 258.318 219.337 254.878 224.11 252.421C228.954 249.894 234.394 248.631 240.43 248.631C246.397 248.631 251.591 249.894 256.013 252.421C260.506 254.878 263.77 258.423 265.805 263.056L253.065 269.9C250.117 264.705 245.87 262.108 240.325 262.108C236.043 262.108 232.498 263.512 229.691 266.32C226.883 269.128 225.479 272.953 225.479 277.796C225.479 282.64 226.883 286.465 229.691 289.273C232.498 292.081 236.043 293.485 240.325 293.485C245.94 293.485 250.187 290.888 253.065 285.693L265.805 292.643C263.77 297.135 260.506 300.645 256.013 303.172C251.591 305.699 246.397 306.962 240.43 306.962Z" fill="#D1C297"/>
<path d="M275.787 249.473H292.107V283.166L319.693 249.473H334.75V306.12H318.43V272.427L290.949 306.12H275.787V249.473Z" fill="#D1C297"/>
<path d="M400.868 249.473V306.12H386.233V289.905H374.124L363.385 306.12H345.906L358.857 287.589C354.926 286.044 351.908 283.833 349.802 280.955C347.767 278.007 346.749 274.462 346.749 270.321C346.749 263.652 349.135 258.528 353.909 254.948C358.752 251.298 365.385 249.473 373.809 249.473H400.868ZM374.124 262.845C370.615 262.845 367.947 263.477 366.122 264.74C364.367 266.004 363.49 268.04 363.49 270.847C363.49 273.655 364.332 275.726 366.017 277.059C367.772 278.323 370.404 278.955 373.914 278.955H386.233V262.845H374.124Z" fill="#D1C297"/>
<path d="M692.231 86.7751C692.435 91.0911 691.788 95.4049 690.33 99.4652C688.871 103.526 686.63 107.251 683.736 110.424C680.842 113.598 677.353 116.156 673.474 117.949C669.594 119.743 665.401 120.736 661.139 120.87C656.877 121.005 652.631 120.279 648.648 118.734C644.666 117.188 641.027 114.856 637.944 111.871C634.86 108.886 632.394 105.309 630.689 101.349C628.983 97.3887 628.073 93.124 628.011 88.8036V0.240234H600.415V86.7751C600.313 94.8026 601.785 102.771 604.745 110.217C607.706 117.664 612.097 124.44 617.663 130.154C623.229 135.867 629.859 140.404 637.169 143.5C644.479 146.596 652.323 148.19 660.246 148.19C668.169 148.19 676.013 146.596 683.323 143.5C690.633 140.404 697.263 135.867 702.829 130.154C708.395 124.44 712.786 117.664 715.747 110.217C718.708 102.771 720.18 94.8026 720.077 86.7751V0.240234H692.361L692.231 86.7751Z" fill="#D1C297"/>
<path d="M72.6165 28.3656C84.0437 28.3547 95.0419 32.7747 103.355 40.719L119.27 17.4828C108.687 8.48559 95.7884 2.73609 82.0915 0.909824C68.3945 -0.916443 54.4676 1.25639 41.9472 7.17302C29.4268 13.0897 18.8329 22.5043 11.4104 34.3108C3.98783 46.1173 0.0449219 59.8251 0.0449219 73.8237C0.0449219 87.8223 3.98783 101.53 11.4104 113.337C18.8329 125.143 29.4268 134.558 41.9472 140.474C54.4676 146.391 68.3945 148.564 82.0915 146.738C95.7884 144.911 108.687 139.162 119.27 130.165L103.355 106.918C98.0252 111.999 91.5493 115.68 84.4925 117.642C77.4358 119.604 70.0125 119.786 62.8701 118.174C55.7277 116.561 49.0832 113.202 43.5162 108.39C37.9491 103.578 33.6285 97.4582 30.9313 90.5655C28.2341 83.6728 27.2422 76.2161 28.042 68.8457C28.8419 61.4754 31.4093 54.4153 35.5202 48.2812C39.6312 42.1471 45.1608 37.1254 51.6269 33.654C58.0929 30.1826 65.299 28.367 72.6165 28.3656Z" fill="#D1C297"/>
<path d="M385.288 99.1391L317.775 0.28125H290.049V147.366H317.775V48.5083L385.288 147.366H413.014V0.28125H385.288V99.1391Z" fill="#D1C297"/>
<path d="M449.938 0.28125V28.3757H492.778V147.366H520.504V28.3757H563.344V0.28125H449.938Z" fill="#D1C297"/>
<path d="M1214.55 0.28125V28.3757H1229.65V147.366H1257.37V0.28125H1214.55Z" fill="#D1C297"/>
<path d="M156.254 0.28125V147.366H253.005V119.272H183.98V87.8709H239.422V59.7765H183.98V28.3757H253.005V0.28125H156.254Z" fill="#D1C297"/>
<path d="M868.322 49.6438C868.309 36.5523 863.174 24.0002 854.042 14.7393C844.91 5.47844 832.526 0.264391 819.607 0.240234L756.928 0.240234V147.356H784.654V98.9763H802.35L835.381 147.295H868.352L833.75 96.8059C843.729 93.7181 852.469 87.4732 858.691 78.9861C864.912 70.499 868.287 60.216 868.322 49.6438ZM819.607 70.9428H784.654V28.3448H819.607C825.181 28.3448 830.528 30.5888 834.47 34.5831C838.412 38.5775 840.626 43.9949 840.626 49.6438C840.626 55.2926 838.412 60.7101 834.47 64.7045C830.528 68.6988 825.181 70.9428 819.607 70.9428Z" fill="#D1C297"/>
<path d="M995.292 0.28125L954.654 59.7765L913.976 0.28125H881.035L940.791 87.7086V147.366H968.517V87.7086L1028.23 0.28125H995.292Z" fill="#D1C297"/>
<path d="M1175.29 73.7894L1176.01 72.7752C1180.02 66.7473 1182.58 59.851 1183.48 52.6396C1184.38 45.4282 1183.61 38.1027 1181.21 31.251C1178.81 24.3993 1174.86 18.2122 1169.68 13.1864C1164.5 8.16053 1158.23 4.43592 1151.36 2.31148C1144.5 0.187046 1137.25 -0.27805 1130.18 0.953524C1123.11 2.1851 1116.42 5.07904 1110.65 9.40308C1104.89 13.7271 1100.2 19.3608 1096.97 25.852C1093.74 32.3431 1092.06 39.511 1092.06 46.7802V48.5045H1119.85C1119.82 47.9301 1119.82 47.3546 1119.85 46.7802C1119.84 41.9235 1121.74 37.2626 1125.11 33.8141C1128.49 30.3656 1133.07 28.4093 1137.86 28.3718C1140.17 28.2699 1142.47 28.6307 1144.64 29.4335C1146.8 30.2363 1148.79 31.4652 1150.49 33.0497C1152.19 34.6341 1153.56 36.5428 1154.52 38.666C1155.49 40.7891 1156.03 43.0848 1156.12 45.4212V45.4719C1156.15 45.9075 1156.15 46.3447 1156.12 46.7802C1155.2 51.9147 1153.21 56.7905 1150.27 61.081C1148.73 63.3732 1091.31 147.362 1091.31 147.362H1186.55V119.268H1144.24L1175.29 73.7894Z" fill="#D1C297"/>
</svg>
