<svg width="19" height="18" viewBox="0 0 19 18" fill="none" xmlns="http://www.w3.org/2000/svg">
<path d="M18.3527 14.504L15.8689 16.9085C15.5022 17.2755 15.0163 17.3998 14.543 17.4003C12.4499 17.3392 10.4715 16.3358 8.84708 15.3055C6.18072 13.4125 3.73422 11.0653 2.19875 8.22869C1.60984 7.03922 0.918841 5.52156 0.984861 4.19389C0.990748 3.69445 1.12866 3.20429 1.48909 2.88236L3.97288 0.459659C4.48865 0.0315264 4.98743 0.179552 5.31749 0.678245L7.31571 4.37606C7.52603 4.81413 7.40538 5.28351 7.09159 5.59654L6.17651 6.48911C6.12001 6.56463 6.08405 6.65059 6.08314 6.74415C6.43404 8.06971 7.49709 9.29146 8.43619 10.1323C9.37528 10.9731 10.3847 12.1122 11.695 12.3819C11.857 12.426 12.0553 12.4415 12.1712 12.3364L13.2357 11.2798C13.6027 11.0084 14.1325 10.8758 14.5243 11.0977H14.543L18.1472 13.1743C18.6764 13.498 18.7315 14.1235 18.3527 14.504Z" fill="white"/>
</svg>
