<svg width="25" height="26" viewBox="0 0 25 26" fill="none" xmlns="http://www.w3.org/2000/svg">
<path d="M12.5566 0.555664C10.0994 0.555664 7.69742 1.28431 5.65434 2.64946C3.61125 4.0146 2.01886 5.95494 1.07853 8.2251C0.138196 10.4953 -0.107838 12.9933 0.371538 15.4033C0.850915 17.8132 2.03417 20.027 3.77167 21.7645C5.50918 23.502 7.72289 24.6852 10.1329 25.1646C12.5429 25.644 15.0409 25.3979 17.311 24.4576C19.5812 23.5173 21.5215 21.9249 22.8867 19.8818C24.2518 17.8387 24.9805 15.4367 24.9805 12.9795C24.9806 11.3479 24.6593 9.73233 24.035 8.22494C23.4107 6.71755 22.4956 5.3479 21.3419 4.19422C20.1882 3.04053 18.8186 2.1254 17.3112 1.5011C15.8038 0.876788 14.1882 0.555529 12.5566 0.555664ZM16.5068 19.3808C16.4603 19.4968 16.3896 19.6015 16.2993 19.6878C16.209 19.7742 16.1013 19.8403 15.9835 19.8816C15.8656 19.923 15.7402 19.9387 15.6158 19.9276C15.4913 19.9165 15.3707 19.879 15.2619 19.8175L11.8893 17.1969L9.72466 19.1939C9.67443 19.231 9.61568 19.2549 9.5538 19.2633C9.49193 19.2718 9.42892 19.2645 9.37058 19.2423L9.78553 15.5295L9.79882 15.54L9.8073 15.4667C9.8073 15.4667 15.8763 9.94118 16.1236 9.70576C16.3739 9.47095 16.2913 9.42002 16.2913 9.42002C16.3055 9.13361 15.8422 9.42002 15.8422 9.42002L7.8008 14.5933L4.45197 13.4528C4.45197 13.4528 3.93763 13.2683 3.88917 12.8627C3.83824 12.4602 4.46873 12.2415 4.46873 12.2415L17.7834 6.95206C17.7834 6.95206 18.8779 6.4644 18.8779 7.27199L16.5068 19.3808Z" fill="white"/>
</svg>
