<svg width="26" height="25" viewBox="0 0 26 25" fill="none" xmlns="http://www.w3.org/2000/svg">
<path fill-rule="evenodd" clip-rule="evenodd" d="M12.8828 0.0556641C19.6486 0.0556641 25.1328 5.53989 25.1328 12.3057C25.1328 19.0714 19.6486 24.5557 12.8828 24.5557C6.11704 24.5557 0.632812 19.0714 0.632812 12.3057C0.632812 5.53989 6.11704 0.0556641 12.8828 0.0556641ZM13.6164 5.04519C14.4494 5.14932 15.1227 5.35003 15.861 5.71046C16.5875 6.06571 17.0525 6.40211 17.6674 7.01367C18.2436 7.5913 18.5635 8.029 18.9023 8.7084C19.3744 9.65589 19.6434 10.7829 19.6891 12.023C19.7061 12.4461 19.6938 12.5403 19.5972 12.6614C19.4135 12.8956 19.0087 12.8569 18.8707 12.5935C18.8274 12.5064 18.8151 12.4315 18.8005 12.0932C18.7765 11.5735 18.7402 11.2371 18.6676 10.8357C18.3817 9.26201 17.6264 8.00497 16.4202 7.10319C15.4157 6.34887 14.3769 5.98137 13.0162 5.90175C12.5558 5.8749 12.4762 5.85792 12.3721 5.7783C12.178 5.62564 12.1685 5.26803 12.3551 5.10124C12.4687 4.99759 12.5483 4.98251 12.9431 4.99476C13.149 5.00182 13.452 5.02634 13.6169 5.04566L13.6164 5.04519ZM8.08129 5.30668C8.1661 5.33589 8.29661 5.40326 8.372 5.45179C8.83184 5.75616 10.1129 7.39293 10.5318 8.21039C10.7716 8.67683 10.8512 9.02266 10.7763 9.27897C10.6985 9.55459 10.5704 9.6997 9.99654 10.1614C9.76661 10.3475 9.55081 10.5384 9.51736 10.5892C9.43019 10.715 9.35951 10.9615 9.35951 11.1358C9.36234 11.5396 9.62338 12.2722 9.96732 12.8353C10.234 13.273 10.7108 13.8341 11.1829 14.2642C11.7375 14.7717 12.2265 15.1175 12.7787 15.3908C13.4882 15.7441 13.9217 15.8337 14.2388 15.6857C14.3189 15.6494 14.4037 15.6009 14.4301 15.5792C14.4541 15.5576 14.6407 15.3305 14.8442 15.0789C15.2362 14.5856 15.3257 14.5059 15.5948 14.4141C15.9364 14.2982 16.285 14.3293 16.636 14.5083C16.9022 14.6464 17.4831 15.0063 17.8587 15.2673C18.3524 15.6132 19.4088 16.474 19.5511 16.6455C19.8031 16.955 19.8465 17.3517 19.6773 17.789C19.4983 18.2507 18.801 19.1167 18.3138 19.4865C17.8733 19.8201 17.5609 19.9482 17.1491 19.9671C16.8099 19.9845 16.6699 19.9553 16.2365 19.7763C12.8366 18.377 10.1223 16.2879 7.96773 13.4181C6.84167 11.9189 5.98417 10.3645 5.39853 8.75174C5.05694 7.81131 5.04046 7.40284 5.3208 6.92179C5.44189 6.71872 5.95779 6.21553 6.3333 5.93519C6.95758 5.47111 7.24592 5.29912 7.47584 5.25107C7.63321 5.21714 7.90697 5.24402 8.08129 5.30668ZM13.7837 6.79833C15.2537 7.01365 16.3915 7.69543 17.1373 8.80264C17.5562 9.42644 17.8177 10.1591 17.9072 10.9445C17.9388 11.2324 17.9388 11.7572 17.9048 11.8444C17.8733 11.9264 17.7715 12.0376 17.6843 12.0833C17.5901 12.1318 17.3889 12.1271 17.2777 12.0691C17.0912 11.9749 17.0356 11.8246 17.0356 11.4189C17.0356 10.7923 16.873 10.1327 16.5927 9.61962C16.2768 9.03844 15.8099 8.55322 15.2414 8.2151C14.7547 7.92487 14.0353 7.71003 13.3794 7.65679C13.142 7.63747 13.011 7.58895 12.9214 7.48482C12.8545 7.41123 12.8145 7.31712 12.8079 7.21787C12.8013 7.11862 12.8286 7.02006 12.8852 6.93826C13.011 6.74274 13.2051 6.71117 13.7837 6.79833ZM14.2991 8.6236C14.7764 8.72536 15.142 8.90628 15.4544 9.19934C15.8563 9.57862 16.0763 10.038 16.1734 10.6981C16.2388 11.1283 16.212 11.2979 16.0598 11.4378C15.9166 11.5683 15.6527 11.5735 15.493 11.4501C15.3766 11.3629 15.3403 11.271 15.314 11.0222C15.2824 10.691 15.2244 10.4587 15.125 10.2434C14.9121 9.7864 14.5366 9.5499 13.9024 9.47216C13.6041 9.43588 13.5146 9.40242 13.418 9.2884C13.2414 9.07826 13.3087 8.73713 13.5537 8.6118C13.6456 8.56563 13.6842 8.56095 13.8878 8.57272C14.0258 8.58089 14.1632 8.59788 14.2991 8.6236Z" fill="white"/>
</svg>
