<svg width="25" height="25" viewBox="0 0 25 25" fill="none" xmlns="http://www.w3.org/2000/svg">
<g clip-path="url(#clip0_330_1081)">
<path d="M12.1358 0.0556641H12.1298C5.51333 0.0556641 0.132828 5.43766 0.132828 12.0557C0.12872 14.5832 0.928802 17.0465 2.41733 19.0892L0.921828 23.5472L5.53433 22.0727C7.49088 23.3707 9.78784 24.0607 12.1358 24.0557C18.7523 24.0557 24.1328 18.6722 24.1328 12.0557C24.1328 5.43916 18.7523 0.0556641 12.1358 0.0556641Z" fill="white"/>
<path d="M19.1186 17.0009C18.8291 17.8184 17.6801 18.4964 16.7636 18.6944C16.1366 18.8279 15.3176 18.9344 12.5606 17.7914C9.03413 16.3304 6.76313 12.7469 6.58613 12.5144C6.41663 12.2819 5.16113 10.6169 5.16113 8.89495C5.16113 7.17295 6.03563 6.33445 6.38813 5.97445C6.67763 5.67895 7.15613 5.54395 7.61513 5.54395C7.76363 5.54395 7.89713 5.55145 8.01713 5.55745C8.36963 5.57245 8.54663 5.59345 8.77913 6.14995C9.06863 6.84745 9.77363 8.56945 9.85763 8.74645C9.94313 8.92345 10.0286 9.16345 9.90863 9.39595C9.79613 9.63595 9.69713 9.74244 9.52013 9.94645C9.34313 10.1504 9.17513 10.3064 8.99813 10.5254C8.83613 10.7159 8.65313 10.9199 8.85713 11.2724C9.06113 11.6174 9.76613 12.7679 10.8041 13.6919C12.1436 14.8844 13.2296 15.2654 13.6181 15.4274C13.9076 15.5474 14.2526 15.5189 14.4641 15.2939C14.7326 15.0044 15.0641 14.5244 15.4016 14.0519C15.6416 13.7129 15.9446 13.6709 16.2626 13.7909C16.5866 13.9034 18.3011 14.7509 18.6536 14.9264C19.0061 15.1034 19.2386 15.1874 19.3241 15.3359C19.4081 15.4844 19.4081 16.1819 19.1186 17.0009Z" fill="#0A1013"/>
</g>
<defs>
<clipPath id="clip0_330_1081">
<rect width="24" height="24" fill="white" transform="translate(0.132812 0.0556641)"/>
</clipPath>
</defs>
</svg>
