<svg width="25" height="25" viewBox="0 0 25 25" fill="none" xmlns="http://www.w3.org/2000/svg">
<path d="M12.5 0C5.625 0 0 5.625 0 12.5C0 19.375 5.625 25 12.5 25C19.375 25 25 19.375 25 12.5C25 5.625 19.375 0 12.5 0ZM17.125 15.375C17.625 15.875 17.625 16.625 17.125 17.125C16.625 17.625 15.875 17.625 15.375 17.125L12.5 14.25L9.625 17.125C9.125 17.625 8.375 17.625 7.875 17.125C7.375 16.625 7.375 15.875 7.875 15.375L10.75 12.5L7.875 9.625C7.375 9.125 7.375 8.375 7.875 7.875C8.375 7.375 9.125 7.375 9.625 7.875L12.5 10.75L15.375 7.875C15.875 7.375 16.625 7.375 17.125 7.875C17.625 8.375 17.625 9.125 17.125 9.625L14.25 12.5L17.125 15.375Z" fill="#D92020"/>
</svg>
