<svg width="26" height="26" viewBox="0 0 26 26" fill="none" xmlns="http://www.w3.org/2000/svg">
<path d="M21.7176 4.08152C16.8357 -0.800285 8.92206 -0.800285 4.04026 4.08152C-0.841545 8.96332 -0.841545 16.877 4.04026 21.7588C8.92206 26.6406 16.8357 26.6406 21.7176 21.7588C26.5994 16.877 26.5984 8.96332 21.7176 4.08152V4.08152ZM19.6816 9.82929L12.0859 17.426C11.8984 17.6134 11.6441 17.7188 11.379 17.7188C11.1138 17.7188 10.8595 17.6134 10.672 17.426L6.07618 12.8292C5.98334 12.7363 5.90969 12.6261 5.85945 12.5048C5.8092 12.3835 5.78334 12.2535 5.78334 12.1222C5.78334 11.857 5.88868 11.6027 6.07618 11.4152C6.26368 11.2277 6.51798 11.1224 6.78315 11.1224C7.04832 11.1224 7.30262 11.2277 7.49012 11.4152L11.379 15.3041L18.2677 8.41435C18.3606 8.32151 18.4709 8.24787 18.5922 8.19765C18.7136 8.14743 18.8437 8.12161 18.975 8.12166C19.1064 8.1217 19.2364 8.14762 19.3577 8.19792C19.4791 8.24823 19.5893 8.32194 19.6821 8.41485C19.775 8.50775 19.8486 8.61804 19.8988 8.7394C19.949 8.86076 19.9749 8.99083 19.9748 9.12217C19.9748 9.25352 19.9489 9.38356 19.8986 9.50489C19.8483 9.62622 19.7745 9.73645 19.6816 9.82929V9.82929Z" fill="#2E9F06"/>
</svg>
